<svg width="61" height="61" viewBox="0 0 61 61" fill="none" xmlns="http://www.w3.org/2000/svg">
<path d="M30.662 61C23.6269 60.9939 16.8101 58.5566 11.366 54.1008C5.92184 49.6451 2.18493 43.4447 0.78804 36.5497C-0.608846 29.6547 0.420145 22.4888 3.70077 16.2655C6.98139 10.0421 12.312 5.14381 18.79 2.40002C26.218 -0.616 34.5347 -0.58696 41.9415 2.48086C49.3483 5.54868 55.2499 11.4087 58.37 18.7936C61.49 26.1786 61.5778 34.4949 58.6144 41.944C55.6509 49.3932 49.8744 55.3765 42.534 58.6C38.7784 60.1907 34.7405 61.007 30.662 61ZM18.439 20.755L13.422 25.655L30.262 42.1L47.103 25.65L42.086 20.75L30.262 32.3L18.439 20.755Z" fill="white"/>
</svg>
